<?xml version="1.0" encoding="utf-8"?>
<!-- Generator: Adobe Illustrator 19.2.1, SVG Export Plug-In . SVG Version: 6.00 Build 0)  -->
<svg version="1.1" id="layer" xmlns="http://www.w3.org/2000/svg" xmlns:xlink="http://www.w3.org/1999/xlink" x="0px" y="0px"
	 viewBox="0 0 652 652" style="enable-background:new 0 0 652 652;" xml:space="preserve">
<style type="text/css">
	.st0{fill:#006BFF;}
	.st1{fill:#0AE8F0;}
</style>
<path class="st0" d="M388.7,315.5c9.3,0,18.1,5.7,20,18h-41.4C368.9,322.7,377,315.5,388.7,315.5 M407.3,351.7
	c-3.2,4.9-9.3,8.7-17.7,8.7c-11.5,0-20.4-6.3-22.5-17.5h52c0.3-1.6,0.4-3.2,0.4-4.8c0-17.4-12.1-32.8-30.9-32.8
	c-19.4,0-32.5,14.3-32.5,32.6c0,18.6,13.3,32.6,33.3,32.6c12.4,0,21.8-5.6,27.3-14L407.3,351.7z M340.2,278.4H351V369h-10.8V278.4z
	 M479.6,330.9V369h-10.8v-37.5c0-10.2-5.8-15.9-15.4-15.9c-9.9,0-18,5.8-18,20.5V369h-10.8v-62h10.8v8.9
	c4.6-7.3,11.4-10.5,20.1-10.5C470.1,305.3,479.6,315,479.6,330.9 M539.1,337.9c0-12.7-9.6-22.2-22.1-22.2c-12.4,0-22,9.6-22,22.2
	c0,12.7,9.6,22.2,22,22.2C529.6,360.2,539.1,350.6,539.1,337.9 M549.9,278.4V369h-10.8v-10.7c-5,7.6-12.9,12.3-23.5,12.3
	c-17.2,0-31.4-14.3-31.4-32.6s14.1-32.6,31.4-32.6c10.5,0,18.5,4.7,23.5,12.3v-39.2H549.9z M558.6,278.4h10.8V369h-10.8V278.4z
	 M321,337.9c0-12.7-9.6-22.2-22.1-22.2c-12.4,0-22,9.6-22,22.2c0,12.7,9.6,22.2,22,22.2C311.4,360.2,321,350.6,321,337.9
	 M331.8,306.9v62H321v-10.7c-5,7.6-12.9,12.3-23.4,12.3c-17.2,0-31.4-14.3-31.4-32.6s14.1-32.6,31.4-32.6c10.5,0,18.5,4.7,23.4,12.3
	v-10.7H331.8z M250.1,357c-17.4,6.4-36.7-2.5-43.2-19.9c-6.4-17.4,2.5-36.7,19.9-43.2c11.2-4.1,23.8-2,33,5.6
	c1.9,1.6,3.6,3.3,5.1,5.3l9.3-6.8c-15.2-19.8-43.6-23.6-63.4-8.4s-23.6,43.6-8.4,63.4c15.2,19.8,43.6,23.6,63.4,8.4
	c0.1-0.1,0.1-0.1,0.2-0.2l-6.2-9.8C257,353.8,253.7,355.7,250.1,357 M621.5,306.9v35.2c0,11.4-6.6,18.6-16.7,18.6
	c-10.1,0-17.4-7.2-17.4-18.6v-35.2h-10.9v34.2c0,17.9,11.2,29.5,28.4,29.5c14.9,0,17.2-9.4,17.2-9.6v12.7c0,12.6-5.5,19.6-16.9,19.6
	c-8.4,0-15.6-6.2-16.7-14.5l-9.8,3.4c2.9,12.3,13.9,21,26.5,21c17.7,0,27.3-11.6,27.3-29.5v-66.7H621.5z"/>
<path class="st0" d="M120.4,343.1c-4.1,3.7-9.3,8.3-18.7,8.3H96c-6.8,0-13-2.5-17.4-6.9c-4.3-4.4-6.7-10.4-6.7-16.9v-7.7
	c0-6.5,2.4-12.5,6.7-16.9c4.4-4.5,10.6-6.9,17.4-6.9h5.6c9.4,0,14.6,4.6,18.7,8.3c4.3,3.8,8,7.1,17.9,7.1c1.5,0,3-0.1,4.5-0.4l0-0.1
	c-0.6-1.5-1.3-2.9-2.1-4.3l-6.6-11.5c-6.1-10.5-17.3-17-29.5-17H91.4c-12.2,0-23.4,6.5-29.5,17l-6.6,11.5c-6.1,10.5-6.1,23.5,0,34
	l6.6,11.5c6.1,10.5,17.3,17,29.5,17h13.2c12.2,0,23.4-6.5,29.5-17l6.6-11.5c0.8-1.4,1.5-2.8,2.1-4.3l0-0.1c-1.5-0.2-3-0.4-4.5-0.4
	C128.4,336,124.7,339.3,120.4,343.1"/>
<path class="st0" d="M101.7,303H96c-10.3,0-17.1,7.4-17.1,16.8v7.7c0,9.5,6.8,16.8,17.1,16.8h5.6c15.1,0,13.9-15.4,36.7-15.4
	c2.2,0,4.3,0.2,6.4,0.6c0.7-3.9,0.7-7.9,0-11.8c-2.1,0.4-4.3,0.6-6.4,0.6C115.5,318.4,116.7,303,101.7,303"/>
<path class="st0" d="M157.8,335.2c-3.9-2.8-8.3-4.8-13.1-5.6c0,0,0,0.1,0,0.1c-0.4,2.3-1,4.5-1.9,6.6c3.9,0.6,7.6,2.1,10.8,4.5
	c0,0,0,0.1,0,0.1c-9.5,30.8-42.1,48-72.9,38.5s-48-42.1-38.5-72.9s42.1-48,72.9-38.5c18.4,5.7,32.8,20.1,38.5,38.5c0,0,0,0.1,0,0.1
	c-3.2,2.3-6.9,3.8-10.8,4.4c0.9,2.1,1.5,4.4,1.9,6.6c0,0,0,0.1,0,0.1c4.7-0.9,9.2-2.8,13.1-5.6c3.7-2.8,3-5.9,2.4-7.7
	c-10.6-34.5-47.2-53.8-81.7-43.2c-34.5,10.6-53.8,47.2-43.2,81.7s47.2,53.8,81.7,43.2c20.6-6.4,36.8-22.5,43.2-43.2
	C160.8,341.1,161.6,338,157.8,335.2"/>
<path class="st1" d="M142.8,311c-1.5,0.2-3,0.4-4.5,0.4c-9.9,0-13.6-3.3-17.9-7.1c-4.2-3.7-9.3-8.3-18.7-8.3H96
	c-6.8,0-13,2.5-17.4,6.9c-4.3,4.4-6.7,10.4-6.7,16.9v7.7c0,6.5,2.4,12.5,6.7,16.9c4.4,4.5,10.6,6.9,17.4,6.9h5.6
	c9.4,0,14.6-4.6,18.7-8.3c4.3-3.8,8-7.1,17.9-7.1c1.5,0,3,0.1,4.5,0.4c0.9-2.1,1.5-4.4,1.9-6.6c0,0,0-0.1,0-0.1
	c-2.1-0.4-4.3-0.6-6.4-0.6c-22.8,0-21.6,15.4-36.7,15.4H96c-10.3,0-17.1-7.4-17.1-16.9v-7.7c0-9.5,6.8-16.8,17.1-16.8h5.6
	c15.1,0,13.9,15.4,36.7,15.4c2.2,0,4.3-0.2,6.4-0.6c0,0,0-0.1,0-0.1C144.3,315.4,143.7,313.2,142.8,311"/>
<path class="st1" d="M142.8,311c-1.5,0.2-3,0.4-4.5,0.4c-9.9,0-13.6-3.3-17.9-7.1c-4.2-3.7-9.3-8.3-18.7-8.3H96
	c-6.8,0-13,2.5-17.4,6.9c-4.3,4.4-6.7,10.4-6.7,16.9v7.7c0,6.5,2.4,12.5,6.7,16.9c4.4,4.5,10.6,6.9,17.4,6.9h5.6
	c9.4,0,14.6-4.6,18.7-8.3c4.3-3.8,8-7.1,17.9-7.1c1.5,0,3,0.1,4.5,0.4c0.9-2.1,1.5-4.4,1.9-6.6c0,0,0-0.1,0-0.1
	c-2.1-0.4-4.3-0.6-6.4-0.6c-22.8,0-21.6,15.4-36.7,15.4H96c-10.3,0-17.1-7.4-17.1-16.9v-7.7c0-9.5,6.8-16.8,17.1-16.8h5.6
	c15.1,0,13.9,15.4,36.7,15.4c2.2,0,4.3-0.2,6.4-0.6c0,0,0-0.1,0-0.1C144.3,315.4,143.7,313.2,142.8,311"/>
</svg>
